<?xml version="1.0" standalone="no"?>
<!DOCTYPE svg PUBLIC "-//W3C//DTD SVG 20010904//EN"
 "http://www.w3.org/TR/2001/REC-SVG-20010904/DTD/svg10.dtd">
<svg version="1.0" xmlns="http://www.w3.org/2000/svg"
 width="512.000000pt" height="512.000000pt" viewBox="0 0 512.000000 512.000000"
 preserveAspectRatio="xMidYMid meet">
<metadata>
Created by potrace 1.11, written by Peter Selinger 2001-2013
</metadata>
<g transform="translate(0.000000,512.000000) scale(0.100000,-0.100000)"
fill="#000000" stroke="none">
<path d="M2350 5114 c-136 -17 -268 -38 -345 -55 -973 -221 -1723 -971 -1944
-1944 -44 -198 -56 -310 -56 -555 0 -245 12 -357 56 -555 221 -973 971 -1723
1944 -1944 198 -44 310 -56 555 -56 245 0 357 12 555 56 973 221 1723 971
1944 1944 45 201 56 309 56 560 -1 177 -5 270 -18 355 -43 276 -117 513 -242
765 -259 525 -645 911 -1170 1170 -249 123 -488 199 -755 240 -101 16 -501 29
-580 19z m965 -1020 c264 -64 548 -341 626 -611 64 -225 8 -451 -171 -692 -62
-84 -1555 -1578 -1642 -1643 -206 -155 -409 -182 -613 -81 -75 38 -242 211
-284 295 -68 135 -79 289 -32 424 52 152 81 185 695 803 314 315 625 622 690
682 129 119 227 177 331 199 115 24 240 -23 330 -122 147 -163 120 -355 -84
-584 -48 -55 -326 -334 -617 -622 l-529 -523 -103 107 -103 108 594 595 c613
616 638 644 623 705 -11 45 -40 51 -104 19 -48 -23 -159 -129 -723 -693 -433
-431 -676 -682 -694 -713 -19 -33 -29 -67 -33 -112 -4 -58 -2 -72 27 -129 34
-69 106 -143 173 -177 23 -12 58 -19 90 -19 109 0 110 1 711 594 1017 1003
1106 1098 1158 1235 63 169 40 293 -83 449 -55 69 -163 158 -231 191 -133 64
-287 43 -445 -62 -59 -39 -242 -215 -792 -763 -771 -768 -737 -738 -819 -714
-73 21 -119 99 -105 178 6 33 85 116 688 721 374 376 713 711 752 745 139 119
319 206 467 225 75 10 171 4 252 -15z"/>
</g>
</svg>
